%TF.GenerationSoftware,Altium Limited,Altium Designer,21.6.4 (81)*%
G04 Layer_Physical_Order=1*
G04 Layer_Color=255*
%FSLAX45Y45*%
%MOMM*%
%TF.SameCoordinates,35F77A6B-66F6-43E6-81AF-3D6A737DF117*%
%TF.FilePolarity,Positive*%
%TF.FileFunction,Copper,L1,Top,Signal*%
%TF.Part,Single*%
G01*
G75*
%TA.AperFunction,ConnectorPad*%
%ADD10R,0.65000X1.70000*%
%ADD11R,1.00000X2.90000*%
%TA.AperFunction,SMDPad,CuDef*%
%ADD12R,0.60000X0.70000*%
%ADD13R,0.70000X0.60000*%
%ADD14R,2.70000X2.60000*%
%ADD15R,0.80000X0.35000*%
%ADD16R,0.35000X0.85000*%
%TA.AperFunction,Conductor*%
%ADD17C,0.30000*%
%ADD18C,0.50000*%
%TA.AperFunction,TestPad*%
%ADD19C,3.00000*%
%TA.AperFunction,ViaPad*%
%ADD20C,0.70000*%
%ADD21C,0.50000*%
D10*
X312500Y1010000D02*
D03*
X187500D02*
D03*
X-62500D02*
D03*
X-187500D02*
D03*
X62500D02*
D03*
X-312500D02*
D03*
D11*
X497500Y1290000D02*
D03*
X-497500D02*
D03*
D12*
X325000Y625000D02*
D03*
X425000D02*
D03*
X-200000Y450000D02*
D03*
X-300000D02*
D03*
X-75000D02*
D03*
X25000D02*
D03*
X325000Y775000D02*
D03*
X425000D02*
D03*
X75000Y25000D02*
D03*
X175000D02*
D03*
D13*
X550000Y650000D02*
D03*
Y750000D02*
D03*
X325000Y-375000D02*
D03*
Y-275000D02*
D03*
X25000Y-675000D02*
D03*
Y-775000D02*
D03*
X-75000Y-675000D02*
D03*
Y-775000D02*
D03*
D14*
X0Y-325000D02*
D03*
D15*
X200000Y-450000D02*
D03*
Y-400000D02*
D03*
Y-350000D02*
D03*
Y-300000D02*
D03*
Y-250000D02*
D03*
Y-200000D02*
D03*
X-200000Y-450000D02*
D03*
Y-400000D02*
D03*
Y-350000D02*
D03*
Y-300000D02*
D03*
Y-250000D02*
D03*
Y-200000D02*
D03*
D16*
X125000Y-127500D02*
D03*
X75000D02*
D03*
X25000D02*
D03*
X-25000D02*
D03*
X-75000D02*
D03*
X-125000D02*
D03*
X125000Y-522500D02*
D03*
X75000D02*
D03*
X25000D02*
D03*
X-25000D02*
D03*
X-75000D02*
D03*
X-125000D02*
D03*
D17*
X127500Y-891493D02*
Y-522500D01*
X68993Y-950000D02*
X127500Y-891493D01*
X-200000Y-950000D02*
X68993D01*
X-525000D02*
X-475000D01*
X-600000Y-875000D02*
X-525000Y-950000D01*
X-600000Y-875000D02*
Y600000D01*
X-475000Y725000D01*
X-325000D01*
X-187500Y862500D01*
Y1010000D01*
X-75000Y600000D02*
X187500Y862500D01*
X-75000Y450000D02*
Y600000D01*
X187500Y862500D02*
Y1010000D01*
X-62500Y837500D02*
Y1010000D01*
X-200000Y450000D02*
Y700000D01*
X-62500Y837500D01*
X-200000Y25000D02*
X-125000Y-50000D01*
X-200000Y25000D02*
Y450000D01*
X-125000Y-127500D02*
Y-50000D01*
X-75000Y450000D02*
X-75000Y450000D01*
X-75000Y-127500D02*
Y450000D01*
X325000Y-425000D02*
Y-375000D01*
X300000Y-450000D02*
X325000Y-425000D01*
X200000Y-450000D02*
X300000D01*
X200000Y-200000D02*
X300000D01*
X325000Y-225000D01*
Y-275000D02*
Y-225000D01*
X55000Y-270000D02*
X125000Y-200000D01*
X-55000Y-380000D02*
X-25000Y-410000D01*
X55000Y-380000D02*
X75000Y-400000D01*
Y-522500D02*
Y-400000D01*
X-25000Y-522500D02*
Y-410000D01*
X0Y-325000D02*
X55000Y-270000D01*
X125000Y-200000D02*
X200000D01*
X-55000Y-270000D02*
X0Y-325000D01*
X-125000Y-200000D02*
X-55000Y-270000D01*
X-200000Y-200000D02*
X-125000D01*
X75000Y-127500D02*
Y25000D01*
X-75000Y-675000D02*
Y-522500D01*
X25000Y-675000D02*
Y-522500D01*
D18*
X427166Y-1047834D02*
X700000Y-775000D01*
X-425000Y-861555D02*
X-238721Y-1047834D01*
X427166D01*
X-425000Y-861555D02*
Y-675000D01*
X62500Y1010000D02*
X62501Y1010001D01*
Y1144736D02*
X62503Y1144738D01*
X62501Y1010001D02*
Y1144736D01*
X-312500Y1010000D02*
X-312011Y1010489D01*
Y1143756D02*
X-311523Y1144245D01*
X-312011Y1010489D02*
Y1143756D01*
X550000Y750000D02*
Y850000D01*
X425000Y775000D02*
Y850000D01*
Y775000D02*
X425000Y775000D01*
X25000Y-850000D02*
Y-775000D01*
X-75000Y-850000D02*
Y-775000D01*
X325766Y-275765D02*
X415053D01*
X325000Y-275000D02*
X325766Y-275765D01*
X415053D02*
X415819Y-276531D01*
X175000Y25000D02*
X250000D01*
X175000Y25000D02*
X175000Y25000D01*
X700000Y-775000D02*
Y-375000D01*
X-425000Y-675000D02*
Y400000D01*
Y-675000D02*
X-425000Y-675000D01*
X-375000Y450000D02*
X-300000D01*
X-425000Y400000D02*
X-375000Y450000D01*
X700000Y-375000D02*
Y450000D01*
X700000Y-375000D02*
X700000Y-375000D01*
Y450000D02*
Y575000D01*
X25000Y450000D02*
X700000D01*
X-425000Y-675000D02*
X-75000D01*
X325000Y-375000D02*
X700000D01*
X625000Y650000D02*
X700000Y575000D01*
X550000Y650000D02*
X625000D01*
X312500Y814290D02*
X320000Y806790D01*
X312500Y814290D02*
Y1010000D01*
X325000Y625000D02*
Y775000D01*
X320000Y780000D02*
X325000Y775000D01*
X320000Y780000D02*
Y806790D01*
X519999Y625000D02*
X545000Y650000D01*
X425000Y625000D02*
X519999D01*
D19*
X1250000Y-1250000D02*
D03*
X-1250000Y1250000D02*
D03*
X1250000D02*
D03*
X-1250000Y-1250000D02*
D03*
D20*
X-200000Y-950000D02*
D03*
X-475000D02*
D03*
X62503Y1144738D02*
D03*
X-311523Y1144245D02*
D03*
X550000Y850000D02*
D03*
X425000D02*
D03*
X25000Y-850000D02*
D03*
X-75000D02*
D03*
X415819Y-276531D02*
D03*
X250000Y25000D02*
D03*
D21*
X-55000Y-270000D02*
D03*
X55000D02*
D03*
Y-380000D02*
D03*
X-55000D02*
D03*
%TF.MD5,c732538f00d920213fb7cca924838cb8*%
M02*
