%TF.GenerationSoftware,Altium Limited,Altium Designer,21.6.4 (81)*%
G04 Layer_Physical_Order=2*
G04 Layer_Color=16711680*
%FSLAX45Y45*%
%MOMM*%
%TF.SameCoordinates,35F77A6B-66F6-43E6-81AF-3D6A737DF117*%
%TF.FilePolarity,Positive*%
%TF.FileFunction,Copper,L2,Bot,Signal*%
%TF.Part,Single*%
G01*
G75*
%TA.AperFunction,Conductor*%
%ADD17C,0.30000*%
%TA.AperFunction,TestPad*%
%ADD19C,3.00000*%
%TA.AperFunction,ViaPad*%
%ADD20C,0.70000*%
%ADD21C,0.50000*%
G36*
X1150311Y1387847D02*
X1141631Y1382048D01*
X1117953Y1358369D01*
X1099348Y1330525D01*
X1086533Y1299587D01*
X1080000Y1266743D01*
Y1233257D01*
X1086533Y1200413D01*
X1099348Y1169475D01*
X1117953Y1141631D01*
X1141631Y1117953D01*
X1169475Y1099348D01*
X1200413Y1086533D01*
X1233257Y1080000D01*
X1266743D01*
X1299587Y1086533D01*
X1330525Y1099348D01*
X1358369Y1117953D01*
X1382048Y1141631D01*
X1387847Y1150311D01*
X1400000Y1146624D01*
Y-1146624D01*
X1387847Y-1150311D01*
X1382048Y-1141631D01*
X1358369Y-1117953D01*
X1330525Y-1099348D01*
X1299587Y-1086533D01*
X1266743Y-1080000D01*
X1233257D01*
X1200413Y-1086533D01*
X1169475Y-1099348D01*
X1141631Y-1117953D01*
X1117953Y-1141631D01*
X1099348Y-1169475D01*
X1086533Y-1200413D01*
X1080000Y-1233257D01*
Y-1266743D01*
X1086533Y-1299587D01*
X1099348Y-1330525D01*
X1117953Y-1358369D01*
X1141631Y-1382048D01*
X1150311Y-1387847D01*
X1146624Y-1400000D01*
X-1146624D01*
X-1150311Y-1387847D01*
X-1141631Y-1382048D01*
X-1117953Y-1358369D01*
X-1099348Y-1330525D01*
X-1086533Y-1299587D01*
X-1080000Y-1266743D01*
Y-1233257D01*
X-1086533Y-1200413D01*
X-1099348Y-1169475D01*
X-1117953Y-1141631D01*
X-1141631Y-1117953D01*
X-1169475Y-1099348D01*
X-1200413Y-1086533D01*
X-1233257Y-1080000D01*
X-1266743D01*
X-1299587Y-1086533D01*
X-1330525Y-1099348D01*
X-1358369Y-1117953D01*
X-1382048Y-1141631D01*
X-1387847Y-1150311D01*
X-1400000Y-1146624D01*
Y1146624D01*
X-1387847Y1150311D01*
X-1382048Y1141631D01*
X-1358369Y1117953D01*
X-1330525Y1099348D01*
X-1299587Y1086533D01*
X-1266743Y1080000D01*
X-1233257D01*
X-1200413Y1086533D01*
X-1169475Y1099348D01*
X-1141631Y1117953D01*
X-1117953Y1141631D01*
X-1099348Y1169475D01*
X-1086533Y1200413D01*
X-1080000Y1233257D01*
Y1266743D01*
X-1086533Y1299587D01*
X-1099348Y1330525D01*
X-1117953Y1358369D01*
X-1141631Y1382048D01*
X-1150311Y1387847D01*
X-1146624Y1400000D01*
X1146624D01*
X1150311Y1387847D01*
D02*
G37*
%LPC*%
G36*
X-189060Y-895000D02*
X-210940D01*
X-231155Y-903373D01*
X-242096Y-914314D01*
X-432904D01*
X-443845Y-903373D01*
X-464060Y-895000D01*
X-485940D01*
X-506155Y-903373D01*
X-521627Y-918845D01*
X-530000Y-939060D01*
Y-960940D01*
X-521627Y-981155D01*
X-506155Y-996626D01*
X-485940Y-1005000D01*
X-464060D01*
X-443845Y-996626D01*
X-432904Y-985686D01*
X-242096D01*
X-231155Y-996626D01*
X-210940Y-1005000D01*
X-189060D01*
X-168845Y-996626D01*
X-153374Y-981155D01*
X-145000Y-960940D01*
Y-939060D01*
X-153374Y-918845D01*
X-168845Y-903373D01*
X-189060Y-895000D01*
D02*
G37*
%LPD*%
D17*
X-475000Y-950000D02*
X-225000D01*
D19*
X1250000Y-1250000D02*
D03*
X-1250000Y1250000D02*
D03*
X1250000D02*
D03*
X-1250000Y-1250000D02*
D03*
D20*
X-200000Y-950000D02*
D03*
X-475000D02*
D03*
X62503Y1144738D02*
D03*
X-311523Y1144245D02*
D03*
X550000Y850000D02*
D03*
X425000D02*
D03*
X25000Y-850000D02*
D03*
X-75000D02*
D03*
X415819Y-276531D02*
D03*
X250000Y25000D02*
D03*
D21*
X-55000Y-270000D02*
D03*
X55000D02*
D03*
Y-380000D02*
D03*
X-55000D02*
D03*
%TF.MD5,0e558963012a11b6442bfc4f962c6819*%
M02*
