%TF.GenerationSoftware,Altium Limited,Altium Designer,21.6.4 (81)*%
G04 Layer_Color=8421504*
%FSLAX45Y45*%
%MOMM*%
%TF.SameCoordinates,35F77A6B-66F6-43E6-81AF-3D6A737DF117*%
%TF.FilePolarity,Positive*%
%TF.FileFunction,Paste,Top*%
%TF.Part,Single*%
G01*
G75*
%TA.AperFunction,ConnectorPad*%
%ADD10R,0.65000X1.70000*%
%ADD11R,1.00000X2.90000*%
%TA.AperFunction,SMDPad,CuDef*%
%ADD12R,0.60000X0.70000*%
%ADD13R,0.70000X0.60000*%
%ADD14R,2.70000X2.60000*%
%ADD15R,0.80000X0.35000*%
%ADD16R,0.35000X0.85000*%
D10*
X312500Y1010000D02*
D03*
X187500D02*
D03*
X-62500D02*
D03*
X-187500D02*
D03*
X62500D02*
D03*
X-312500D02*
D03*
D11*
X497500Y1290000D02*
D03*
X-497500D02*
D03*
D12*
X325000Y625000D02*
D03*
X425000D02*
D03*
X-200000Y450000D02*
D03*
X-300000D02*
D03*
X-75000D02*
D03*
X25000D02*
D03*
X325000Y775000D02*
D03*
X425000D02*
D03*
X75000Y25000D02*
D03*
X175000D02*
D03*
D13*
X550000Y650000D02*
D03*
Y750000D02*
D03*
X325000Y-375000D02*
D03*
Y-275000D02*
D03*
X25000Y-675000D02*
D03*
Y-775000D02*
D03*
X-75000Y-675000D02*
D03*
Y-775000D02*
D03*
D14*
X0Y-325000D02*
D03*
D15*
X200000Y-450000D02*
D03*
Y-400000D02*
D03*
Y-350000D02*
D03*
Y-300000D02*
D03*
Y-250000D02*
D03*
Y-200000D02*
D03*
X-200000Y-450000D02*
D03*
Y-400000D02*
D03*
Y-350000D02*
D03*
Y-300000D02*
D03*
Y-250000D02*
D03*
Y-200000D02*
D03*
D16*
X125000Y-127500D02*
D03*
X75000D02*
D03*
X25000D02*
D03*
X-25000D02*
D03*
X-75000D02*
D03*
X-125000D02*
D03*
X125000Y-522500D02*
D03*
X75000D02*
D03*
X25000D02*
D03*
X-25000D02*
D03*
X-75000D02*
D03*
X-125000D02*
D03*
%TF.MD5,6587306503b008d2864e29c329b6a77d*%
M02*
