%TF.GenerationSoftware,Altium Limited,Altium Designer,21.6.4 (81)*%
G04 Layer_Color=65535*
%FSLAX45Y45*%
%MOMM*%
%TF.SameCoordinates,35F77A6B-66F6-43E6-81AF-3D6A737DF117*%
%TF.FilePolarity,Positive*%
%TF.FileFunction,Legend,Top*%
%TF.Part,Single*%
G01*
G75*
%TA.AperFunction,NonConductor*%
%ADD24C,0.25400*%
%ADD25C,0.25000*%
%ADD26C,0.30000*%
%ADD27C,0.20000*%
D24*
X413752Y968672D02*
G03*
X413752Y968672I-10270J0D01*
G01*
X-775000Y1351175D02*
X-825783D01*
X-800392D01*
Y1224216D01*
X-825783Y1198825D01*
X-851175D01*
X-876567Y1224216D01*
X-724216Y1198825D02*
X-673433D01*
X-698824D01*
Y1351175D01*
X-724216Y1325783D01*
X423825Y526175D02*
X322258D01*
Y450000D01*
X373041D01*
X322258D01*
Y373825D01*
X474608Y526175D02*
Y373825D01*
X550784D01*
X576176Y399217D01*
Y424608D01*
X550784Y450000D01*
X474608D01*
X550784D01*
X576176Y475392D01*
Y500784D01*
X550784Y526175D01*
X474608D01*
X626959Y373825D02*
X677743D01*
X652351D01*
Y526175D01*
X626959Y500784D01*
X-451959Y198825D02*
Y351175D01*
X-375784D01*
X-350392Y325783D01*
Y275000D01*
X-375784Y249608D01*
X-451959D01*
X-401175D02*
X-350392Y198825D01*
X-198041D02*
X-299608D01*
X-198041Y300392D01*
Y325783D01*
X-223433Y351175D01*
X-274216D01*
X-299608Y325783D01*
X-76567Y198825D02*
Y351175D01*
X-392D01*
X25000Y325783D01*
Y275000D01*
X-392Y249608D01*
X-76567D01*
X-25784D02*
X25000Y198825D01*
X75784D02*
X126567D01*
X101176D01*
Y351175D01*
X75784Y325783D01*
X749608Y750784D02*
X724216Y776175D01*
X673433D01*
X648041Y750784D01*
Y649217D01*
X673433Y623825D01*
X724216D01*
X749608Y649217D01*
X901959Y623825D02*
X800392D01*
X901959Y725392D01*
Y750784D01*
X876567Y776175D01*
X825784D01*
X800392Y750784D01*
X150000Y775784D02*
X124608Y801175D01*
X73825D01*
X48433Y775784D01*
Y674217D01*
X73825Y648825D01*
X124608D01*
X150000Y674217D01*
X200784Y648825D02*
X251567D01*
X226176D01*
Y801175D01*
X200784Y775784D01*
X-526567Y-273825D02*
Y-400784D01*
X-501175Y-426175D01*
X-450392D01*
X-425000Y-400784D01*
Y-273825D01*
X-374216Y-426175D02*
X-323433D01*
X-348824D01*
Y-273825D01*
X-374216Y-299217D01*
X424608Y75783D02*
X399217Y101175D01*
X348433D01*
X323041Y75783D01*
Y-25784D01*
X348433Y-51175D01*
X399217D01*
X424608Y-25784D01*
X576959Y101175D02*
X526175Y75783D01*
X475392Y25000D01*
Y-25784D01*
X500784Y-51175D01*
X551567D01*
X576959Y-25784D01*
Y-392D01*
X551567Y25000D01*
X475392D01*
X499608Y-374216D02*
X474216Y-348825D01*
X423433D01*
X398041Y-374216D01*
Y-475783D01*
X423433Y-501175D01*
X474216D01*
X499608Y-475783D01*
X651959Y-348825D02*
X550392D01*
Y-425000D01*
X601175Y-399608D01*
X626567D01*
X651959Y-425000D01*
Y-475783D01*
X626567Y-501175D01*
X575784D01*
X550392Y-475783D01*
X224608Y-674217D02*
X199217Y-648825D01*
X148433D01*
X123041Y-674217D01*
Y-775784D01*
X148433Y-801175D01*
X199217D01*
X224608Y-775784D01*
X351567Y-801175D02*
Y-648825D01*
X275392Y-725000D01*
X376959D01*
X-325392Y-674217D02*
X-350783Y-648825D01*
X-401567D01*
X-426959Y-674217D01*
Y-775784D01*
X-401567Y-801175D01*
X-350783D01*
X-325392Y-775784D01*
X-274608Y-674217D02*
X-249216Y-648825D01*
X-198433D01*
X-173041Y-674217D01*
Y-699608D01*
X-198433Y-725000D01*
X-223825D01*
X-198433D01*
X-173041Y-750392D01*
Y-775784D01*
X-198433Y-801175D01*
X-249216D01*
X-274608Y-775784D01*
D25*
X-282500Y-200000D02*
G03*
X-282500Y-200000I-12500J0D01*
G01*
X-484851Y-1158004D02*
Y-1038043D01*
X-444864Y-1078030D01*
X-404877Y-1038043D01*
Y-1158004D01*
X-364890D02*
Y-1038043D01*
X-304909D01*
X-284916Y-1058036D01*
Y-1098023D01*
X-304909Y-1118017D01*
X-364890D01*
X-244929Y-1038043D02*
Y-1138010D01*
X-224935Y-1158004D01*
X-184948D01*
X-164954Y-1138010D01*
Y-1038043D01*
X-124967Y-1098023D02*
X-44993D01*
X74968Y-1038043D02*
X34981Y-1058036D01*
X-5006Y-1098023D01*
Y-1138010D01*
X14987Y-1158004D01*
X54974D01*
X74968Y-1138010D01*
Y-1118017D01*
X54974Y-1098023D01*
X-5006D01*
X114955Y-1058036D02*
X134948Y-1038043D01*
X174935D01*
X194929Y-1058036D01*
Y-1138010D01*
X174935Y-1158004D01*
X134948D01*
X114955Y-1138010D01*
Y-1058036D01*
X314890Y-1038043D02*
X234916D01*
Y-1098023D01*
X274903Y-1078030D01*
X294897D01*
X314890Y-1098023D01*
Y-1138010D01*
X294897Y-1158004D01*
X254910D01*
X234916Y-1138010D01*
X354877Y-1058036D02*
X374871Y-1038043D01*
X414858D01*
X434851Y-1058036D01*
Y-1138010D01*
X414858Y-1158004D01*
X374871D01*
X354877Y-1138010D01*
Y-1058036D01*
X-834738Y-1241995D02*
Y-1361957D01*
X-774757D01*
X-754764Y-1341963D01*
Y-1321970D01*
X-774757Y-1301976D01*
X-834738D01*
X-774757D01*
X-754764Y-1281982D01*
Y-1261989D01*
X-774757Y-1241995D01*
X-834738D01*
X-714777Y-1281982D02*
Y-1361957D01*
Y-1321970D01*
X-694783Y-1301976D01*
X-674790Y-1281982D01*
X-654796D01*
X-534835Y-1361957D02*
X-574822D01*
X-594815Y-1341963D01*
Y-1301976D01*
X-574822Y-1281982D01*
X-534835D01*
X-514841Y-1301976D01*
Y-1321970D01*
X-594815D01*
X-454861Y-1281982D02*
X-414874D01*
X-394880Y-1301976D01*
Y-1361957D01*
X-454861D01*
X-474854Y-1341963D01*
X-454861Y-1321970D01*
X-394880D01*
X-354893Y-1361957D02*
Y-1241995D01*
Y-1321970D02*
X-294913Y-1281982D01*
X-354893Y-1321970D02*
X-294913Y-1361957D01*
X-214938D02*
X-174951D01*
X-154958Y-1341963D01*
Y-1301976D01*
X-174951Y-1281982D01*
X-214938D01*
X-234932Y-1301976D01*
Y-1341963D01*
X-214938Y-1361957D01*
X-114971Y-1281982D02*
Y-1341963D01*
X-94977Y-1361957D01*
X-34997D01*
Y-1281982D01*
X24984Y-1261989D02*
Y-1281982D01*
X4990D01*
X44977D01*
X24984D01*
Y-1341963D01*
X44977Y-1361957D01*
X224919Y-1241995D02*
Y-1361957D01*
X284900D01*
X304893Y-1341963D01*
Y-1321970D01*
X284900Y-1301976D01*
X224919D01*
X284900D01*
X304893Y-1281982D01*
Y-1261989D01*
X284900Y-1241995D01*
X224919D01*
X364874Y-1361957D02*
X404861D01*
X424855Y-1341963D01*
Y-1301976D01*
X404861Y-1281982D01*
X364874D01*
X344880Y-1301976D01*
Y-1341963D01*
X364874Y-1361957D01*
X484835Y-1281982D02*
X524822D01*
X544816Y-1301976D01*
Y-1361957D01*
X484835D01*
X464842Y-1341963D01*
X484835Y-1321970D01*
X544816D01*
X584803Y-1281982D02*
Y-1361957D01*
Y-1321970D01*
X604796Y-1301976D01*
X624790Y-1281982D01*
X644783D01*
X784738Y-1241995D02*
Y-1361957D01*
X724758D01*
X704764Y-1341963D01*
Y-1301976D01*
X724758Y-1281982D01*
X784738D01*
D26*
X600000Y1000000D02*
Y1375000D01*
X475000Y875000D02*
X600000Y1000000D01*
X-475000Y875000D02*
X475000D01*
X-600000Y1000000D02*
X-475000Y875000D01*
X-600000Y1000000D02*
Y1375000D01*
D27*
X182500Y-110000D02*
X215000D01*
Y-142500D02*
Y-110000D01*
Y-540000D02*
Y-507500D01*
X182500Y-540000D02*
X215000D01*
X-215000D02*
X-182500D01*
X-215000D02*
Y-507500D01*
Y-110000D02*
X-182500D01*
X-215000Y-142500D02*
Y-110000D01*
%TF.MD5,8fb8d2559b56cebdd708129a704c5d7e*%
M02*
