%TF.GenerationSoftware,Altium Limited,Altium Designer,21.6.4 (81)*%
G04 Layer_Color=8388736*
%FSLAX45Y45*%
%MOMM*%
%TF.SameCoordinates,35F77A6B-66F6-43E6-81AF-3D6A737DF117*%
%TF.FilePolarity,Negative*%
%TF.FileFunction,Soldermask,Top*%
%TF.Part,Single*%
G01*
G75*
%TA.AperFunction,TestPad*%
%ADD22C,3.14000*%
%TA.AperFunction,ViaPad*%
%ADD23C,0.70320*%
%TA.AperFunction,ConnectorPad*%
%ADD28R,0.85320X1.90320*%
%ADD29R,1.20320X3.10320*%
%TA.AperFunction,SMDPad,CuDef*%
%ADD30R,0.80320X0.90320*%
%ADD31R,0.90320X0.80320*%
%ADD32R,2.90320X2.80320*%
%ADD33R,1.00320X0.55320*%
%ADD34R,0.55320X1.05320*%
D22*
X1250000Y-1250000D02*
D03*
X-1250000Y1250000D02*
D03*
X1250000D02*
D03*
X-1250000Y-1250000D02*
D03*
D23*
X-55000Y-270000D02*
D03*
X55000D02*
D03*
Y-380000D02*
D03*
X-55000D02*
D03*
D28*
X312500Y1010000D02*
D03*
X187500D02*
D03*
X-62500D02*
D03*
X-187500D02*
D03*
X62500D02*
D03*
X-312500D02*
D03*
D29*
X497500Y1290000D02*
D03*
X-497500D02*
D03*
D30*
X325000Y625000D02*
D03*
X425000D02*
D03*
X-200000Y450000D02*
D03*
X-300000D02*
D03*
X-75000D02*
D03*
X25000D02*
D03*
X325000Y775000D02*
D03*
X425000D02*
D03*
X75000Y25000D02*
D03*
X175000D02*
D03*
D31*
X550000Y650000D02*
D03*
Y750000D02*
D03*
X325000Y-375000D02*
D03*
Y-275000D02*
D03*
X25000Y-675000D02*
D03*
Y-775000D02*
D03*
X-75000Y-675000D02*
D03*
Y-775000D02*
D03*
D32*
X0Y-325000D02*
D03*
D33*
X200000Y-450000D02*
D03*
Y-400000D02*
D03*
Y-350000D02*
D03*
Y-300000D02*
D03*
Y-250000D02*
D03*
Y-200000D02*
D03*
X-200000Y-450000D02*
D03*
Y-400000D02*
D03*
Y-350000D02*
D03*
Y-300000D02*
D03*
Y-250000D02*
D03*
Y-200000D02*
D03*
D34*
X125000Y-127500D02*
D03*
X75000D02*
D03*
X25000D02*
D03*
X-25000D02*
D03*
X-75000D02*
D03*
X-125000D02*
D03*
X125000Y-522500D02*
D03*
X75000D02*
D03*
X25000D02*
D03*
X-25000D02*
D03*
X-75000D02*
D03*
X-125000D02*
D03*
%TF.MD5,900472270cdaf87d8a1e398a20b8a9ca*%
M02*
